<?xml version="1.0" encoding="iso-8859-1"?>
   
<!-- Generator: Adobe Illustrator 19.0.0, SVG Export Plug-In . SVG Version: 6.00 Build 0)  -->
<svg version="1.1" id="Capa_1" xmlns="http://www.w3.org/2000/svg" xmlns:xlink="http://www.w3.org/1999/xlink" x="0px" y="0px"
	 viewBox="0 0 512 512" style="enable-background:new 0 0 512 512;" xml:space="preserve">
<style>
    .cls { 
		fill: white; 
		}
  </style>

<g>
	<g>
		<path class="cls" d="M422,0c-49.629,0-90,40.371-90,90c0,49.629,40.371,90,90,90c49.629,0,90-40.371,90-90C512,40.371,471.629,0,422,0z"/>
	</g>
</g>
<g>
	<g>
		<path class="cls" d="M165,331.85H15c-8.291,0-15,6.709-15,15v150c0,8.291,6.709,15,15,15h150c8.291,0,15-6.709,15-15v-150
			C180,338.559,173.291,331.85,165,331.85z"/>
	</g>
</g>
<g>
	<g>
		<path class="cls" d="M202.285,95.493l-42.352,42.352L371.29,347.159c15.786-12.81,34.129-22.357,54.419-27.501L202.285,95.493z"/>
	</g>
</g>
<g>
	<g>
		<polygon class="cls" points="159.858,53.066 53.807,159.126 75.018,180.339 181.074,74.282 		"/>
	</g>
</g>
<g>
	<g>
		<path class="cls" d="M510.739,491.056l-62.151-144.999c-53.846,5.782-96.094,49.29-99.798,103.724l142.262,60.963
			C503.41,516.067,516.095,503.518,510.739,491.056z"/>
	</g>
</g>
<g>
	<g>
		<path class="cls" d="M138.722,159.056L96.229,201.55l225.094,225.844c4.759-22.121,15.04-41.982,28.781-59L138.722,159.056z"/>
	</g>
</g>
<g>
	<g>
		<path class="cls" d="M128.04,21.248c-28.301-28.331-77.754-28.331-106.055,0c-29.313,29.282-29.313,76.772,0,106.055l10.611,10.613
			l106.051-106.06L128.04,21.248z"/>
	</g>
</g>
<g>
</g>
<g>
</g>
<g>
</g>
<g>
</g>
<g>
</g>
<g>
</g>
<g>
</g>
<g>
</g>
<g>
</g>
<g>
</g>
<g>
</g>
<g>
</g>
<g>
</g>
<g>
</g>
<g>
</g>
</svg>
