<svg id="Layer_1" enable-background="new 0 0 512 512" height="512" viewBox="0 0 512 512" 
width="512" xmlns="http://www.w3.org/2000/svg">

<style>
    .cls { 
		fill: white; 
		}
  </style>
  
<path class="cls" clip-rule="evenodd" d="m380.008 16h-278.957v78.049c0 3.866-3.134 7-7 7h-78.05v384.951c0
 5.508 4.492 10 10 10h359.059c5.508 0 10-4.492 10-10v-172.799l-36.402 36.401-19.706-73.544
  1.531-1.531-4.657-4.657-26.2 26.2-93.697-93.696 26.2-26.2-4.657-4.657-1.532 1.532-73.543-19.706
   62.297-62.296c8.115-8.115 18.158-9.69 29.143-8.99l50.104 3.193 48.377-48.377c8.571-8.57 17.737-15.512
    27.69-20.873zm113.425 2.568c.821 19.045 3.012 37.846 2.484 56.188l-58.672-58.672c18.343-.528 37.143 
    1.663 56.188 2.484zm-39.666 97.277c0 31.818-25.794 57.612-57.612 57.612s-57.611-25.795-57.611-57.612c0-31.818
     25.794-57.611 57.612-57.611s57.611 25.794 57.611 57.611zm-57.611-43.611c24.088 0 
     43.611 19.523 43.611 43.611s-19.523 43.611-43.611 43.611-43.611-19.524-43.611-43.611c-.001-24.088
      19.523-43.611 43.611-43.611zm-70.229 187.738-16.301 16.301-73.898-73.898 16.301-16.301zm90.046-.918c.443 
      6.96.016 13.42-4.918 18.354l-45.15 45.15-11.338-42.314 58.996-58.996zm-163.026-163.026 37.807
       2.409-58.997 58.997-42.314-11.338 45.15-45.15c4.934-4.933 11.392-5.361 18.354-4.918zm241.381-3.065c-3.055
        19.664-10.978 38.698-29.1 56.819l-91.758 91.758-103.01-103.01 91.758-91.758c18.121-18.121 37.154-26.044 
        56.819-29.1zm-130.756 158.476-13.189 13.189-103.011-103.01 13.19-13.189zm-113.759.851c2.733-2.733 
        7.166-2.733 9.899 0s2.733 7.165 0 9.899l-67.18 67.18c-2.733 2.733-7.165 2.733-9.899 
        0-2.733-2.733-2.733-7.165 0-9.899zm-20.602-20.603c2.733-2.733 7.165-2.733 9.898 0s2.733 7.165 
        0 9.899l-33.59 33.59c-2.733 2.733-7.166 2.733-9.899 0s-2.733-7.165 0-9.899zm41.204 41.205c2.733-2.733
         7.165-2.733 9.898 0s2.733 7.165 0 9.899l-33.59 33.59c-2.733 2.733-7.165 2.733-9.898 0s-2.733-7.165
          0-9.899zm-87.774 134.218c-14.77 0-22.18 17.893-11.737 28.336 1.924 1.924 1.924 5.044 0 6.967l-10.607
           10.607c-1.924 1.924-5.044 1.924-6.967 0-10.443-10.443-28.336-3.033-28.336 11.737 0 2.722-2.206 
           4.927-4.926 4.927h-15c-2.72 0-4.926-2.205-4.926-4.927 0-14.788-17.88-22.193-28.336-11.737-1.924
            1.924-5.044 1.924-6.967 0l-10.607-10.607c-1.924-1.924-1.924-5.044 0-6.967 10.443-10.443 
            3.033-28.336-11.737-28.336-2.722 0-4.926-2.206-4.926-4.926v-14.999c0-2.721 2.205-4.927
             4.926-4.927 14.77 0 22.18-17.893 11.737-28.336-1.924-1.924-1.924-5.044 0-6.968l10.607-10.607c1.924-1.924 5.044-1.924 6.967 0 10.443 10.443 28.336 3.033 28.336-11.737 0-2.722 2.206-4.926
              4.926-4.926h15c2.72 0 4.926 2.205 4.926 4.926 0 14.77 17.893 22.18 28.336 11.737 1.924-1.924 5.044-1.924 6.967 0l10.607 10.607c1.924 1.924 1.924 5.044 0 6.968-10.443 10.443-3.033 28.336 11.737 
              28.336 2.722 0 4.927 2.206 4.927 4.927v14.999c0 2.72-2.205 4.926-4.927 4.926zm-70.074-49.077c20.242 0 36.651 16.409 36.651 36.651s-16.409 36.651-36.651 36.651-36.651-16.409-36.651-36.651 16.41-36.651 36.651-36.651zm-25.517-335.033v64.049h-64.049z" fill-rule="evenodd"/>
              </svg>