<svg id="Layer_2" enable-background="new 0 0 64 64" viewBox="0 0 64 64"
 xmlns="http://www.w3.org/2000/svg"><g>

 <style>
    .cls { 
		fill: white; 
		}
  </style>

 <path class="cls" d="m59.7 53.2-16-16c-.7-.7-1.9-.7-2.6 0l-1.2 1.2-3.3-3.3c6.8-7.5 6.6-19.2-.7-26.5-7.5-7.5-19.7-7.5-27.2 0s-7.5 19.7 0 27.2c3.8 3.8 8.7 5.6 13.6 5.6 4.6 0 9.2-1.7 12.9-5l3.3 3.3-1.2 1.2c-.7.7-.7 1.9 0 2.6l16 16c.9.9 2.1 1.3 3.2 1.3 1.2 0 2.3-.4 3.2-1.3 1.8-1.6 1.8-4.5 0-6.3zm-27.6-21.1c-2.7 2.7-6.3 4.1-9.9 4.1s-7.2-1.4-9.9-4.1c-2.7-2.6-4.1-6.2-4.1-9.9s1.4-7.2 4.1-9.9c2.6-2.7 6.2-4.1 9.9-4.1s7.3 1.5 9.9 4.1c5.5 5.5 5.5 14.4 0 19.8z"/></g></svg>