<svg id="Capa_1" enable-background="new 0 0 512 512" height="512" viewBox="0 0 512 512"
 width="512" xmlns="http://www.w3.org/2000/svg"><g><g>
<style>
    .cls { 
		fill: white; 
		}
  </style>
  
 <path class="cls" d="m132.5 159.472 47.958-31.972-47.958-31.972z"/>
 
 <path class="cls" d="m270 0h-225c-24.813 0-45 20.187-45 45v255c0 5.858 3.41 11.18 8.732 13.628 2.005.922 4.142 1.373 6.265 1.372 3.515
  0 6.992-1.235 9.765-3.611l65.787-56.389h76.451v-13c0-41.355 33.645-75 75-75h73v-122c0-24.813-20.187-45-45-45zm-54.18 139.981-90 60c-2.51 1.673-5.411
   2.519-8.321 2.519-2.427 0-4.859-.588-7.077-1.775-4.877-2.61-7.922-7.693-7.922-13.225v-120c0-5.532 3.045-10.615 7.922-13.225 4.878-2.611 10.797-2.324 
   15.398.744l90 60c4.173 2.782 6.68 7.466 6.68 12.481s-2.506 9.699-6.68 12.481z"/></g><g>
  
   <path class="cls" d="m467 197h-225c-24.813 0-45 20.187-45 45v165c0 24.813 20.187 45 45 45h179.451l65.787 
   56.389c2.772 2.377 6.25 3.611 9.765 3.611 2.123 0 4.261-.451 6.265-1.372 5.322-2.448 8.732-7.77
    8.732-13.628v-255c0-24.813-20.187-45-45-45zm-36.986 139.199-64.907 64.907c-2.929 2.929-6.768 
    4.394-10.606 4.394s-7.678-1.464-10.606-4.394l-64.907-64.907c-20.715-20.715-20.715-54.422 0-75.138 
    20.715-20.715 54.422-20.715 75.138 0 .126.126.251.253.376.38.125-.127.25-.253.376-.379 20.715-20.715 
    54.422-20.715 75.138 0 20.713 20.715 20.713 54.422-.002 75.137z"/>
    
    <path class="cls" d="m376.089 282.274c-3.829 3.83-6.132 8.696-6.661 14.073-.754 7.679-7.212 13.533-14.928
     13.533s-14.174-5.854-14.928-13.533c-.528-5.377-2.832-10.244-6.661-14.073-4.509-4.508-10.433-6.764-16.356-6.764-5.924 0-11.846 2.254-16.356 6.764-9.018 9.019-9.019 23.693 0 32.711l54.301 54.3 54.301-54.3c9.019-9.019 9.018-23.693 0-32.712-9.018-9.016-23.694-9.017-32.712.001z"/></g></g>
</svg>