<?xml version="1.0" encoding="iso-8859-1"?>


<!-- Generator: Adobe Illustrator 19.0.0, SVG Export Plug-In . SVG Version: 6.00 Build 0)  -->
<svg version="1.1" id="Capa_1" xmlns="http://www.w3.org/2000/svg" xmlns:xlink="http://www.w3.org/1999/xlink" x="0px" y="0px"
	 viewBox="0 0 512 512" style="enable-background:new 0 0 512 512;" xml:space="preserve">
<style>
    .cls { 
		fill: white; 
		}
  </style>
<g>
	<g>
		<path class="cls" d="M467,31H45C20.186,31,0,51.186,0,76v75h512V76C512,51.186,491.814,31,467,31z M75,121c-8.284,0-15-6.716-15-15
			s6.716-15,15-15s15,6.716,15,15S83.284,121,75,121z M135,121c-8.284,0-15-6.716-15-15s6.716-15,15-15s15,6.716,15,15
			S143.284,121,135,121z M435,121H255c-19.773,0-19.854-30,0-30h180C454.773,91,454.854,121,435,121z"/>
	</g>
</g>
<g>
	<g>
		<path class="cls" d="M0,181v255c0,24.814,20.186,45,45,45h422c24.814,0,45-20.186,45-45V181H0z M173.32,363.52
			c16.337,10.891,0.078,36.043-16.641,24.961l-90-60c-8.897-5.933-8.897-19.029,0.001-24.961l90-60
			c16.46-10.962,33.162,13.946,16.641,24.961L102.041,316L173.32,363.52z M299.223,230.746l-60,180
			c-6.298,18.896-34.745,9.404-28.447-9.492l60-180C277.066,202.421,305.477,211.986,299.223,230.746z M443.321,328.48l-90,60
			c-16.501,10.938-33.248-13.889-16.641-24.961L407.959,316l-71.279-47.52c-16.386-10.924,0.015-35.963,16.641-24.961l90,60
			C452.219,309.451,452.219,322.548,443.321,328.48z"/>
	</g>
</g>
<g>
</g>
<g>
</g>
<g>
</g>
<g>
</g>
<g>
</g>
<g>
</g>
<g>
</g>
<g>
</g>
<g>
</g>
<g>
</g>
<g>
</g>
<g>
</g>
<g>
</g>
<g>
</g>
<g>
</g>
</svg>
