<?xml version="1.0"?>
<svg xmlns="http://www.w3.org/2000/svg" viewBox="0 0 48 48"><g id="_23" data-name="23">
<style>
    .cls { 
		fill: white; 
		}
  </style>

<path class="cls" d="M42,35a5,5,0,0,0-10,0,4,4,0,0,0,0,8H42a4,4,0,0,0,0-8Z"/>
<path class="cls" d="M5,27H31a3,3,0,0,0,3-3V20a3,3,0,0,0-3-3H5a3,3,0,0,0-3,3v4A3,3,0,0,0,5,27Zm23.5-6.5A1.5,1.5,0,1,1,27,22,1.5,1.5,0,0,1,28.5,20.5Zm-5,0A1.5,1.5,0,1,1,22,22,1.5,1.5,0,0,1,23.5,20.5ZM7,
21H19a1,1,0,0,1,0,2H7a1,1,0,0,1,0-2Z"/>
<path class="cls" d="M5,15H31a3,3,0,0,0,3-3V8a3,3,0,0,0-3-3H5A3,3,0,0,0,2,8v4A3,3,0,0,0,5,15ZM28.5,8.5A1.5,1.5,0,1,1,27,10,1.5,1.5,0,0,1,28.5,8.5Zm-5,0A1.5,1.5,0,1,1,22,10,1.5,1.5,0,0,1,23.5,8.5ZM7,
9H19a1,1,0,0,1,0,2H7A1,1,0,0,1,7,9Z"/>
<path class="cls" d="M28.5,32.5a1.49,1.49,0,0,1,1.38.91l.34-.14a7,7,0,0,1,2.45-3.76A3,3,0,0,0,31,29H5a3,3,0,0,0-3,3v4a3,3,0,0,0,3,3H26a6,6,0,0,1,1.48-3.91A1.46,1.46,0,0,1,27,34,1.5,1.5,0,0,1,28.5,
32.5ZM19,35H7a1,1,0,0,1,0-2H19a1,1,0,0,1,0,2Zm4.5.5A1.5,1.5,0,1,1,25,34,1.5,1.5,0,0,1,23.5,35.5Z"/></g>
</svg>
